# xmcd
#
# Track frame offsets:
#	150
#	18544
#	34464
#	47306
#	59991
#	74861
#	85004
#	99892
#	110440
#	123626
#	144752
#	157560
#
# Disc length: 2259 seconds
#
# Revision: 0
# Processed by: cddbd v1.4PL0 Copyright (c) Steve Scherf et al.
# Submitted via: dBpowerAMP V4.0
#
DISCID=9e08d10c
DTITLE=Various Artist - Classic Country Vol. 1
DYEAR=1900
DGENRE=Country
TTITLE0=Let's Take It Nice And Easy
TTITLE1=Old Dogs, Children, Watermellon Wine
TTITLE2=Big City 
TTITLE3=It's Four In The Morning
TTITLE4=Harper Valley P.T.A
TTITLE5=The Race Is On 
TTITLE6=Evangelina
TTITLE7=The Danger Of A Stranger 
TTITLE8=In The Middle Of The Night
TTITLE9=Texas When I Die
TTITLE10=Hello Heaven 
TTITLE11=You've Got A Good Love Comin
EXTD=
EXTT0=
EXTT1=
EXTT2=
EXTT3=
EXTT4=
EXTT5=
EXTT6=
EXTT7=
EXTT8=
EXTT9=
EXTT10=
EXTT11=
PLAYORDER=
